<mxfile host="app.diagrams.net" modified="2024-03-24T04:25:27.883Z" agent="Mozilla/5.0 (Macintosh; Intel Mac OS X 10_15_7) AppleWebKit/537.36 (KHTML, like Gecko) Chrome/122.0.0.0 Safari/537.36" version="24.0.8" etag="QcLtOWP4E06cbWwn_7gu" type="github">
  <diagram name="Page-1" id="syjHgxSAs4dE2zH3MkDj">
    <mxGraphModel>
      <root>
        <mxCell id="0" />
        <mxCell id="1" parent="0" />
      </root>
    </mxGraphModel>
  </diagram>
</mxfile>
